# xmcd CD database file
#
# Track frame offsets:
#	150
#	30987
#	60782
#	90242
#	124205
#	152362
#
# Disc length: 2486 seconds
#
# Revision: 0
# Processed by: cddbd v1.5.1PL0 Copyright (c) Steve Scherf et al.
# Submitted via: CDex 1.51
#
DISCID=3109b406
DTITLE=Wayne Shorter - Adam's Apple
DYEAR=1966
DGENRE=Jazz
TTITLE0=Adam's Apple
TTITLE1=502 Blues (Drinkin' and Drivin')
TTITLE2=El Gaucho
TTITLE3=Footprints
TTITLE4=Teru
TTITLE5=Chief Crazy Horse
EXTD=YEAR: 1966
EXTT0=
EXTT1=
EXTT2=
EXTT3=
EXTT4=
EXTT5=
PLAYORDER=
